# xmcd CD database file
# Copyright (C) 1997 Ti Kan
#
# Track frame offsets:
#  150
#  19550
#  42435
#  59915
#  87945
#  118410
#  136868
#  153975
#  185763
#  218610
#
# Disc length: 3363 seconds
#
# Revision: 1
# Processed by: cddbd v1.4b41PL1 Copyright (c) Steve Scherf et al.
# Submitted via: CDWizzard Release:4.31
#
DISCID=8e0d210a
DTITLE=Curtis Mayfield - Living Legend Disc One
DYEAR=1900
DGENRE=
TTITLE0=Give Me Your Love
TTITLE1=Pusherman
TTITLE2=Sweet Exorcist
TTITLE3=Kung Fu
TTITLE4=Back To The World
TTITLE5=A Prayer
TTITLE6=Think
TTITLE7=Mighty, Mighty (Live)
TTITLE8=Hell Below (Live)
TTITLE9=Stone Junkie (Live)
EXTD=Many classic cuts by the Groove Daddy
EXTT0=
EXTT1=
EXTT2=
EXTT3=
EXTT4=
EXTT5=
EXTT6=
EXTT7=
EXTT8=
EXTT9=
PLAYORDER=
